# xmcd
#
# Track frame offsets:
#	150
#	16551
#	24007
#	35138
#	48396
#	60485
#	70864
#	81809
#	93429
#	104914
#	116477
#	129222
#	141604
#	156424
#	172096
#	185495
#	196078
#	206485
#	218725
#	229173
#
# Disc length: 3308 seconds
#
# Revision: 0
# Processed by: cddbd v1.5.2PL0 Copyright (c) Steve Scherf et al.
# Submitted via: EZCDAudioConverter 2.2.2.1
#
DISCID=170cea14
DTITLE=Diverse - Western hits
DYEAR=2002
DGENRE=country
TTITLE0=Ferlin Husky - Giddy-up go
TTITLE1=Dolly Parton - Puppy love
TTITLE2=Johnny Paycheck - Make me onemore memory
TTITLE3=Kenny Rogers - Shine on Ruby Mountain
TTITLE4=Johnny Cash - I walk the line
TTITLE5=Mickey Gilley - Diggie liggio lo
TTITLE6=Patsy Cluine - I can't forget you
TTITLE7=Bill Monroe - Nine pound hammer
TTITLE8=David Fritzell - If you got the money honey
TTITLE9=Dolly Parton - Letter to heaven
TTITLE10=Jim Reeves - How's the world treating you
TTITLE11=Johnny Cash - Give my love to Rose
TTITLE12=Johnny Lee - Country party
TTITLE13=Kenny Rogers - Good lady of Toronto
TTITLE14=Merle Haggard - Fiddle breakdown
TTITLE15=Patsy Cline - I can see an angel
TTITLE16=Kenny Rogers - Good times liberator
TTITLE17=Nitty-Gritty Dirt - High horse
TTITLE18=Willie Nelson - Blame it on the times
TTITLE19=Tina Turner - Lovin' him was easier
EXTD=
EXTT0=
EXTT1=
EXTT2=
EXTT3=
EXTT4=
EXTT5=
EXTT6=
EXTT7=
EXTT8=
EXTT9=
EXTT10=
EXTT11=
EXTT12=
EXTT13=
EXTT14=
EXTT15=
EXTT16=
EXTT17=
EXTT18=
EXTT19=
PLAYORDER=
